<?xml version="1.0" encoding="utf-8"?>
<!-- Generator: Adobe Illustrator 23.0.1, SVG Export Plug-In . SVG Version: 6.00 Build 0)  -->
<svg version="1.1" id="card" xmlns="http://www.w3.org/2000/svg" xmlns:xlink="http://www.w3.org/1999/xlink" x="0px" y="0px"
	 viewBox="0 0 288 216" style="enable-background:new 0 0 288 216;" xml:space="preserve">
<style type="text/css">
	.st0{fill:#FFFFFF;}
	.st1{fill:none;stroke:#B3B3B3;stroke-width:0.5;stroke-miterlimit:10;}
	.st2{display:none;}
	.st3{display:inline;}
	.st4{clip-path:url(#SVGID_2_);}
	.st5{fill:#26A94B;}
</style>
<g id="cardOutline_1_">
	
		<image style="overflow:visible;opacity:0.75;" width="280" height="190" xlink:href="F1B9A6AB17D162A7.png"  transform="matrix(1 0 0 1 11 20)">
	</image>
	<g>
		<path class="st0" d="M250.3,187.6H37.7c-9.9,0-17.8-8-17.8-17.8V46.2c0-9.9,8-17.8,17.8-17.8h212.6c9.9,0,17.8,8,17.8,17.8v123.5
			C268.2,179.6,260.2,187.6,250.3,187.6z"/>
		<path class="st1" d="M250.3,187.6H37.7c-9.9,0-17.8-8-17.8-17.8V46.2c0-9.9,8-17.8,17.8-17.8h212.6c9.9,0,17.8,8,17.8,17.8v123.5
			C268.2,179.6,260.2,187.6,250.3,187.6z"/>
	</g>
</g>
<g class="st2">
	<g class="st3">
		<defs>
			<rect id="SVGID_1_" x="-933.5" y="-180" width="612" height="792"/>
		</defs>
		<clipPath id="SVGID_2_">
			<use xlink:href="#SVGID_1_"  style="overflow:visible;"/>
		</clipPath>
		<g class="st4">
			<defs>
				<rect id="SVGID_3_" x="-933.5" y="-180" width="612" height="792"/>
			</defs>
			<clipPath id="SVGID_4_">
				<use xlink:href="#SVGID_3_"  style="overflow:visible;"/>
			</clipPath>
			<g style="clip-path:url(#SVGID_4_);">
				
					<image style="overflow:visible;" width="2550" height="3300" xlink:href="F1B9A6AB17D162A5.jpg"  transform="matrix(0.24 0 0 0.24 -933.5464 -180)">
				</image>
			</g>
		</g>
	</g>
</g>
<path class="st5" d="M-567.2,156.1c5.6-0.8,11.5-0.2,17.1-0.2c7.4-0.1,14.7-0.2,22.1-0.3c4.6-0.1,9.1-0.1,13.7-0.2
	c3.8,0,7.8-0.4,11.6,0.2c6.8,1.1,13.2,4.8,17.3,10.3c3.6,4.8,6.7,12.2,5.6,18.3c-1.2,6.3-4,12.3-8.8,16.7c-3.6,3.3-8.1,5.5-12.8,6.4
	c-5.2,1-11,0.5-16.3,0.6c-9.5,0.1-19.1,0.3-28.6,0.4c-6.6,0.1-13.5,0.8-20,0.2c-4.3-0.4-8.4-1.7-12.1-4c-2.1-1.3-4-2.9-5.7-4.7
	c-5.3-5.8-8.2-13.8-6.9-21.6c1-5.8,3.9-11.2,8.4-15c3.6-3.1,7.8-5.5,12.4-6.6C-569.1,156.4-568.1,156.2-567.2,156.1z"/>
</svg>
