<svg xmlns="http://www.w3.org/2000/svg" xmlns:xlink="http://www.w3.org/1999/xlink" width="144" height="40.03" viewBox="0 0 144 40.03">
  <defs>
    <style>
      .cls-1, .cls-8 {
        isolation: isolate;
      }

      .cls-2, .cls-8 {
        mix-blend-mode: darken;
      }

      .cls-3 {
        fill: url(#radial-gradient);
      }

      .cls-4, .cls-5, .cls-6, .cls-7 {
        mix-blend-mode: multiply;
      }

      .cls-4 {
        fill: url(#linear-gradient);
      }

      .cls-5 {
        fill: url(#linear-gradient-2);
      }

      .cls-6 {
        fill: url(#linear-gradient-3);
      }

      .cls-7 {
        fill: url(#linear-gradient-4);
      }

      .cls-8 {
        font-size: 18px;
        fill: #4d4d4d;
        stroke: #333;
        stroke-miterlimit: 10;
        stroke-width: 0.25px;
        font-family: BigCaslon-Medium, Big Caslon;
        font-weight: 500;
      }
    </style>
    <radialGradient id="radial-gradient" cx="72" cy="-25.15" r="88.3" gradientTransform="translate(0 27.01) scale(1 0.28)" gradientUnits="userSpaceOnUse">
      <stop offset="0.4" stop-color="#fff"/>
      <stop offset="1" stop-color="#d7d1c1"/>
    </radialGradient>
    <linearGradient id="linear-gradient" x1="-1.08" y1="26.48" x2="156.59" y2="26.48" gradientUnits="userSpaceOnUse">
      <stop offset="0.01" stop-color="#ffed00"/>
      <stop offset="0.13" stop-color="#fff000"/>
      <stop offset="0.52" stop-color="#ec008c"/>
      <stop offset="0.75" stop-color="#812e8f"/>
      <stop offset="1" stop-color="#00bef1"/>
    </linearGradient>
    <linearGradient id="linear-gradient-2" x1="0" y1="24.59" x2="144" y2="24.59" xlink:href="#linear-gradient"/>
    <linearGradient id="linear-gradient-3" x1="-18.55" y1="24.1" x2="125.45" y2="24.1" xlink:href="#linear-gradient"/>
    <linearGradient id="linear-gradient-4" x1="0.48" y1="23.75" x2="144.48" y2="23.75" gradientUnits="userSpaceOnUse">
      <stop offset="0.07" stop-color="#fff000"/>
      <stop offset="0.11" stop-color="#fee805"/>
      <stop offset="0.17" stop-color="#fdd112"/>
      <stop offset="0.25" stop-color="#faab28"/>
      <stop offset="0.34" stop-color="#f57746"/>
      <stop offset="0.44" stop-color="#f0366d"/>
      <stop offset="0.52" stop-color="#ec008c"/>
      <stop offset="0.75" stop-color="#812e8f"/>
      <stop offset="1" stop-color="#00bef1"/>
    </linearGradient>
  </defs>
  <title>Asset 2</title>
  <g class="cls-1">
    <g id="Layer_2" data-name="Layer 2">
      <g id="Layer_1-2" data-name="Layer 1">
        <g class="cls-2">
          <rect class="cls-3" width="144" height="40.03"/>
          <path class="cls-4" d="M144,27.25c-25.31-1.1-59.68-.53-101.7-4.61-22-2.15-34.94-4.42-42.3-6.13v20c8.56,0,20.86-2.7,38.63-5.68,23.34-3.9,55.08-.35,87.67,2.48,7.44.64,13.2,1,17.7,1.06Z"/>
          <path class="cls-5" d="M144,29.88a382.85,382.85,0,0,1-40.7-7c-31.77-7.31-53.2-2.84-80-.08-10.54,1.07-18-1-23.3-4.14v9.66c8.23.82,18.62,0,30-1.08,18.88-1.75,40.83-3,56.62-2.5s31.3,2.68,45.75,4.44L144,30.56Z"/>
          <path class="cls-6" d="M144,25.71c-7.58.8-16.77,2-26.24,3.15-15.14,1.87-30.71,4.47-44.46,3.24C26.36,27.87,16,16.38,0,15.1V25.51c7.75-.7,19-.36,35,2.59,35.88,6.62,47.69,5.63,73,2.9a351,351,0,0,1,36-2.37Z"/>
          <path class="cls-7" d="M144,25.8c-3.5.23-7.29.52-11.37.9C106.92,29.1,81.46,24.31,50,16.45,32.2,12,16.62,11.25,5.76,13c-2.09.32-4,.71-5.76,1.11V35.38a80.37,80.37,0,0,1,20.84-6.64C34,26.3,49.89,26.33,62.63,28c40.12,5.29,61.21,1,74.33-.4,2.15-.23,4.54-.44,7-.64Z"/>
        </g>
        <text class="cls-8" transform="translate(32.63 24.26)">COMPLé</text>
      </g>
    </g>
  </g>
</svg>
