<svg xmlns="http://www.w3.org/2000/svg" xmlns:xlink="http://www.w3.org/1999/xlink" viewBox="0 0 299 192"><defs><style>.cls-1{filter:url(#AI_Shadow_1);}.cls-2{fill:#fff;}.cls-10,.cls-11,.cls-3,.cls-4,.cls-5,.cls-7,.cls-8{fill:none;}.cls-3{stroke:#b3b3b3;stroke-width:0.5px;}.cls-10,.cls-11,.cls-12,.cls-3,.cls-4,.cls-5,.cls-6,.cls-7,.cls-8,.cls-9{stroke-miterlimit:10;}.cls-4,.cls-5,.cls-6{stroke:#582583;}.cls-11,.cls-12,.cls-5,.cls-6,.cls-8,.cls-9{stroke-width:3px;}.cls-6{fill:#582583;}.cls-7,.cls-8,.cls-9{stroke:#cb3120;}.cls-9{fill:#cb3120;}.cls-10,.cls-11,.cls-12{stroke:#25a74c;}.cls-12{fill:#25a74c;}</style><filter id="AI_Shadow_1" name="AI_Shadow_1"><feGaussianBlur result="blur" stdDeviation="2" in="SourceAlpha"/><feOffset result="offsetBlurredAlpha" dx="4" dy="4" in="blur"/><feMerge><feMergeNode in="offsetBlurredAlpha"/><feMergeNode in="SourceGraphic"/></feMerge></filter></defs><title>diamonds</title><g id="card"><g id="cardOutline" class="cls-1"><rect class="cls-2" x="25.35" y="16.38" width="248.31" height="159.23" rx="17.85"/><rect class="cls-3" x="25.35" y="16.38" width="248.31" height="159.23" rx="17.85"/></g></g><g id="diamonds"><g id="diamond-purple-filled-3"><g id="diamond-purple-filled-3-2" data-name="diamond-purple-filled-3"><line class="cls-4" x1="197.02" y1="95.38" x2="253.19" y2="95.41"/><line class="cls-4" x1="200.11" y1="101.55" x2="251.42" y2="101.58"/><line class="cls-4" x1="203" y1="107.62" x2="248" y2="107.64"/><line class="cls-4" x1="205.28" y1="113.6" x2="245.28" y2="113.63"/><line class="cls-4" x1="208" y1="118.62" x2="243" y2="118.64"/><line class="cls-4" x1="210.5" y1="123.62" x2="240.5" y2="123.64"/><line class="cls-4" x1="213" y1="128.62" x2="238" y2="128.64"/><line class="cls-4" x1="215.5" y1="133.62" x2="235.5" y2="133.64"/><line class="cls-4" x1="218" y1="138.62" x2="233" y2="138.64"/><line class="cls-4" x1="220.5" y1="143.62" x2="230.5" y2="143.64"/><line class="cls-4" x1="197.02" y1="95.64" x2="253.19" y2="95.62"/><line class="cls-4" x1="200.11" y1="89.47" x2="251.42" y2="89.44"/><line class="cls-4" x1="203" y1="83.41" x2="248" y2="83.38"/><line class="cls-4" x1="205.28" y1="77.42" x2="245.28" y2="77.39"/><line class="cls-4" x1="208" y1="72.41" x2="243" y2="72.38"/><line class="cls-4" x1="210.5" y1="67.41" x2="240.5" y2="67.38"/><line class="cls-4" x1="213" y1="62.41" x2="238" y2="62.38"/><line class="cls-4" x1="215.5" y1="57.41" x2="235.5" y2="57.38"/><line class="cls-4" x1="218" y1="52.41" x2="233" y2="52.38"/><line class="cls-4" x1="220.5" y1="47.41" x2="230.5" y2="47.38"/><path id="diamondOutline" class="cls-5" d="M224.87,37.18c-.25-.66,28.32,58.23,28.32,58.23l-27.27,59.4c.51,1.13-26.85-56.92-28.1-58.82C197.23,95.11,224.87,37.18,224.87,37.18Z"/></g><g id="diamond-purple-filled-3-3" data-name="diamond-purple-filled-3"><line class="cls-4" x1="120.02" y1="95.38" x2="176.19" y2="95.41"/><line class="cls-4" x1="123.11" y1="101.55" x2="174.42" y2="101.58"/><line class="cls-4" x1="126" y1="107.62" x2="171" y2="107.64"/><line class="cls-4" x1="128.28" y1="113.6" x2="168.28" y2="113.63"/><line class="cls-4" x1="131" y1="118.62" x2="166" y2="118.64"/><line class="cls-4" x1="133.5" y1="123.62" x2="163.5" y2="123.64"/><line class="cls-4" x1="136" y1="128.62" x2="161" y2="128.64"/><line class="cls-4" x1="138.5" y1="133.62" x2="158.5" y2="133.64"/><line class="cls-4" x1="141" y1="138.62" x2="156" y2="138.64"/><line class="cls-4" x1="143.5" y1="143.62" x2="153.5" y2="143.64"/><line class="cls-4" x1="120.02" y1="95.64" x2="176.19" y2="95.62"/><line class="cls-4" x1="123.11" y1="89.47" x2="174.42" y2="89.44"/><line class="cls-4" x1="126" y1="83.41" x2="171" y2="83.38"/><line class="cls-4" x1="128.28" y1="77.42" x2="168.28" y2="77.39"/><line class="cls-4" x1="131" y1="72.41" x2="166" y2="72.38"/><line class="cls-4" x1="133.5" y1="67.41" x2="163.5" y2="67.38"/><line class="cls-4" x1="136" y1="62.41" x2="161" y2="62.38"/><line class="cls-4" x1="138.5" y1="57.41" x2="158.5" y2="57.38"/><line class="cls-4" x1="141" y1="52.41" x2="156" y2="52.38"/><line class="cls-4" x1="143.5" y1="47.41" x2="153.5" y2="47.38"/><path id="diamondOutline-2" data-name="diamondOutline" class="cls-5" d="M147.87,37.18c-.25-.66,28.32,58.23,28.32,58.23l-27.27,59.4c.51,1.13-26.85-56.92-28.1-58.82C120.23,95.11,147.87,37.18,147.87,37.18Z"/></g><g id="diamond-purple-filled-3-4" data-name="diamond-purple-filled-3"><line class="cls-4" x1="46.41" y1="95.38" x2="102.59" y2="95.41"/><line class="cls-4" x1="49.5" y1="101.55" x2="100.81" y2="101.58"/><line class="cls-4" x1="52.4" y1="107.62" x2="97.4" y2="107.64"/><line class="cls-4" x1="54.68" y1="113.6" x2="94.68" y2="113.63"/><line class="cls-4" x1="57.4" y1="118.62" x2="92.4" y2="118.64"/><line class="cls-4" x1="59.9" y1="123.62" x2="89.9" y2="123.64"/><line class="cls-4" x1="62.4" y1="128.62" x2="87.4" y2="128.64"/><line class="cls-4" x1="64.9" y1="133.62" x2="84.9" y2="133.64"/><line class="cls-4" x1="67.4" y1="138.62" x2="82.4" y2="138.64"/><line class="cls-4" x1="69.9" y1="143.62" x2="79.9" y2="143.64"/><line class="cls-4" x1="46.41" y1="95.64" x2="102.59" y2="95.62"/><line class="cls-4" x1="49.5" y1="89.47" x2="100.81" y2="89.44"/><line class="cls-4" x1="52.4" y1="83.41" x2="97.4" y2="83.38"/><line class="cls-4" x1="54.68" y1="77.42" x2="94.68" y2="77.39"/><line class="cls-4" x1="57.4" y1="72.41" x2="92.4" y2="72.38"/><line class="cls-4" x1="59.9" y1="67.41" x2="89.9" y2="67.38"/><line class="cls-4" x1="62.4" y1="62.41" x2="87.4" y2="62.38"/><line class="cls-4" x1="64.9" y1="57.41" x2="84.9" y2="57.38"/><line class="cls-4" x1="67.4" y1="52.41" x2="82.4" y2="52.38"/><line class="cls-4" x1="69.9" y1="47.41" x2="79.9" y2="47.38"/><path id="diamondOutline-3" data-name="diamondOutline" class="cls-5" d="M74.26,37.18c-.24-.66,28.33,58.23,28.33,58.23l-27.28,59.4c.52,1.13-26.84-56.92-28.1-58.82C46.63,95.11,74.26,37.18,74.26,37.18Z"/></g></g><g id="diamond-purple-filled-2"><g id="diamond-purple-filled-2-2" data-name="diamond-purple-filled-2"><line class="cls-4" x1="158.02" y1="95.38" x2="214.19" y2="95.41"/><line class="cls-4" x1="161.11" y1="101.55" x2="212.42" y2="101.58"/><line class="cls-4" x1="164" y1="107.62" x2="209" y2="107.64"/><line class="cls-4" x1="166.28" y1="113.6" x2="206.28" y2="113.63"/><line class="cls-4" x1="169" y1="118.62" x2="204" y2="118.64"/><line class="cls-4" x1="171.5" y1="123.62" x2="201.5" y2="123.64"/><line class="cls-4" x1="174" y1="128.62" x2="199" y2="128.64"/><line class="cls-4" x1="176.5" y1="133.62" x2="196.5" y2="133.64"/><line class="cls-4" x1="179" y1="138.62" x2="194" y2="138.64"/><line class="cls-4" x1="181.5" y1="143.62" x2="191.5" y2="143.64"/><line class="cls-4" x1="158.02" y1="95.64" x2="214.19" y2="95.62"/><line class="cls-4" x1="161.11" y1="89.47" x2="212.42" y2="89.44"/><line class="cls-4" x1="164" y1="83.41" x2="209" y2="83.38"/><line class="cls-4" x1="166.28" y1="77.42" x2="206.28" y2="77.39"/><line class="cls-4" x1="169" y1="72.41" x2="204" y2="72.38"/><line class="cls-4" x1="171.5" y1="67.41" x2="201.5" y2="67.38"/><line class="cls-4" x1="174" y1="62.41" x2="199" y2="62.38"/><line class="cls-4" x1="176.5" y1="57.41" x2="196.5" y2="57.38"/><line class="cls-4" x1="179" y1="52.41" x2="194" y2="52.38"/><line class="cls-4" x1="181.5" y1="47.41" x2="191.5" y2="47.38"/><path id="diamondOutline-4" data-name="diamondOutline" class="cls-5" d="M185.87,37.18c-.25-.66,28.32,58.23,28.32,58.23l-27.27,59.4c.51,1.13-26.85-56.92-28.1-58.82C158.23,95.11,185.87,37.18,185.87,37.18Z"/><line class="cls-4" x1="83.02" y1="95.38" x2="139.19" y2="95.41"/><line class="cls-4" x1="86.11" y1="101.55" x2="137.42" y2="101.58"/><line class="cls-4" x1="89" y1="107.62" x2="134" y2="107.64"/><line class="cls-4" x1="91.28" y1="113.6" x2="131.28" y2="113.63"/><line class="cls-4" x1="94" y1="118.62" x2="129" y2="118.64"/><line class="cls-4" x1="96.5" y1="123.62" x2="126.5" y2="123.64"/><line class="cls-4" x1="99" y1="128.62" x2="124" y2="128.64"/><line class="cls-4" x1="101.5" y1="133.62" x2="121.5" y2="133.64"/><line class="cls-4" x1="104" y1="138.62" x2="119" y2="138.64"/><line class="cls-4" x1="106.5" y1="143.62" x2="116.5" y2="143.64"/><line class="cls-4" x1="83.02" y1="95.64" x2="139.19" y2="95.62"/><line class="cls-4" x1="86.11" y1="89.47" x2="137.42" y2="89.44"/><line class="cls-4" x1="89" y1="83.41" x2="134" y2="83.38"/><line class="cls-4" x1="91.28" y1="77.42" x2="131.28" y2="77.39"/><line class="cls-4" x1="94" y1="72.41" x2="129" y2="72.38"/><line class="cls-4" x1="96.5" y1="67.41" x2="126.5" y2="67.38"/><line class="cls-4" x1="99" y1="62.41" x2="124" y2="62.38"/><line class="cls-4" x1="101.5" y1="57.41" x2="121.5" y2="57.38"/><line class="cls-4" x1="104" y1="52.41" x2="119" y2="52.38"/><line class="cls-4" x1="106.5" y1="47.41" x2="116.5" y2="47.38"/><path id="diamondOutline-5" data-name="diamondOutline" class="cls-5" d="M110.87,37.18c-.25-.66,28.32,58.23,28.32,58.23l-27.27,59.4c.51,1.13-26.85-56.92-28.1-58.82C83.23,95.11,110.87,37.18,110.87,37.18Z"/></g></g><g id="diamond-purple-filled-1"><g id="diamond-purple-filled-1-2" data-name="diamond-purple-filled-1"><line class="cls-4" x1="121.41" y1="95.38" x2="177.59" y2="95.41"/><line class="cls-4" x1="123.85" y1="101.56" x2="175.15" y2="101.58"/><line class="cls-4" x1="127" y1="107.62" x2="172" y2="107.65"/><line class="cls-4" x1="129.5" y1="113.61" x2="169.5" y2="113.63"/><line class="cls-4" x1="132" y1="118.62" x2="167" y2="118.65"/><line class="cls-4" x1="134.5" y1="123.62" x2="164.5" y2="123.65"/><line class="cls-4" x1="137" y1="128.62" x2="162" y2="128.65"/><line class="cls-4" x1="139.5" y1="133.62" x2="159.5" y2="133.65"/><line class="cls-4" x1="142" y1="138.62" x2="157" y2="138.65"/><line class="cls-4" x1="144.5" y1="143.62" x2="154.5" y2="143.65"/><line class="cls-4" x1="121.41" y1="95.65" x2="177.59" y2="95.62"/><line class="cls-4" x1="123.85" y1="89.47" x2="175.15" y2="89.45"/><line class="cls-4" x1="127" y1="83.41" x2="172" y2="83.38"/><line class="cls-4" x1="129.5" y1="77.42" x2="169.5" y2="77.4"/><line class="cls-4" x1="132" y1="72.41" x2="167" y2="72.38"/><line class="cls-4" x1="134.5" y1="67.41" x2="164.5" y2="67.38"/><line class="cls-4" x1="137" y1="62.41" x2="162" y2="62.38"/><line class="cls-4" x1="139.5" y1="57.41" x2="159.5" y2="57.38"/><line class="cls-4" x1="142" y1="52.41" x2="157" y2="52.38"/><line class="cls-4" x1="144.5" y1="47.41" x2="154.5" y2="47.38"/><path id="diamondOutline-6" data-name="diamondOutline" class="cls-5" d="M148.87,37.18c-.25-.66,28.32,58.23,28.32,58.23l-27.27,59.4c.51,1.13-26.85-56.92-28.1-58.82C121.23,95.11,148.87,37.18,148.87,37.18Z"/></g></g><g id="diamond-purple-outline-3"><path id="diamond-purple-outline-3-2" data-name="diamond-purple-outline-3" class="cls-5" d="M148.87,37.18c-.25-.66,28.32,58.23,28.32,58.23l-27.27,59.4c.51,1.13-26.85-56.92-28.1-58.82C121.23,95.11,148.87,37.18,148.87,37.18Z"/><path id="diamond-purple-outline-3-3" data-name="diamond-purple-outline-3" class="cls-5" d="M85.87,37.18c-.25-.66,28.32,58.23,28.32,58.23l-27.27,59.4c.51,1.13-26.85-56.92-28.1-58.82C58.23,95.11,85.87,37.18,85.87,37.18Z"/><path id="diamond-purple-outline-3-4" data-name="diamond-purple-outline-3" class="cls-5" d="M211.87,37.18c-.25-.66,28.32,58.23,28.32,58.23l-27.27,59.4c.51,1.13-26.85-56.92-28.1-58.82C184.23,95.11,211.87,37.18,211.87,37.18Z"/></g><g id="diamond-purple-outline-2"><path id="diamond-purple-outline-2-2" data-name="diamond-purple-outline-2" class="cls-5" d="M110.88,37.18c-.25-.66,28.32,58.23,28.32,58.23l-27.27,59.4c.51,1.13-26.85-56.92-28.1-58.82C83.24,95.11,110.88,37.18,110.88,37.18Z"/><path id="diamond-purple-outline-2-3" data-name="diamond-purple-outline-2" class="cls-5" d="M185.78,37.18c-.24-.66,28.32,58.23,28.32,58.23l-27.27,59.4c.52,1.13-26.85-56.92-28.1-58.82C158.15,95.11,185.78,37.18,185.78,37.18Z"/></g><g id="diamond-purple-outline-1"><path id="diamond-purple-solid-1" class="cls-5" d="M148.87,37.18c-.25-.66,28.32,58.23,28.32,58.23l-27.27,59.4c.51,1.13-26.85-56.92-28.1-58.82C121.23,95.11,148.87,37.18,148.87,37.18Z"/></g><g id="diamond-purple-solid-3"><path id="diamond-purple-solid-1-2" data-name="diamond-purple-solid-1" class="cls-6" d="M149.09,37.18c-.24-.66,28.32,58.23,28.32,58.23l-27.27,59.4c.52,1.13-26.85-56.92-28.1-58.82C121.46,95.11,149.09,37.18,149.09,37.18Z"/><path id="diamond-purple-solid-1-3" data-name="diamond-purple-solid-1" class="cls-6" d="M75.92,37.18c-.24-.66,28.32,58.23,28.32,58.23L77,154.81c.52,1.13-26.85-56.92-28.1-58.82C48.29,95.11,75.92,37.18,75.92,37.18Z"/><path id="diamond-purple-solid-1-4" data-name="diamond-purple-solid-1" class="cls-6" d="M225.75,37.18c-.25-.66,28.32,58.23,28.32,58.23l-27.28,59.4C227.31,155.94,200,97.89,198.7,96,198.11,95.11,225.75,37.18,225.75,37.18Z"/></g><g id="diamond-purple-solid-2"><path id="diamond-purple-solid-1-5" data-name="diamond-purple-solid-1" class="cls-6" d="M185.2,37.18c-.25-.66,28.32,58.23,28.32,58.23l-27.27,59.4c.51,1.13-26.85-56.92-28.1-58.82C157.56,95.11,185.2,37.18,185.2,37.18Z"/><path id="diamond-purple-solid-1-6" data-name="diamond-purple-solid-1" class="cls-6" d="M110.67,37.18C110.43,36.52,139,95.41,139,95.41l-27.28,59.4c.52,1.13-26.84-56.92-28.1-58.82C83,95.11,110.67,37.18,110.67,37.18Z"/></g><g id="diamond-purple-solid-1-7" data-name="diamond-purple-solid-1"><path id="diamond-purple-solid-1-8" data-name="diamond-purple-solid-1" class="cls-6" d="M148.87,37.18c-.25-.66,28.32,58.23,28.32,58.23l-27.27,59.4c.51,1.13-26.85-56.92-28.1-58.82C121.23,95.11,148.87,37.18,148.87,37.18Z"/></g><g id="diamond-red-filled-3"><g id="diamond-red-filled-3-2" data-name="diamond-red-filled-3"><line class="cls-7" x1="197.02" y1="95.38" x2="253.19" y2="95.41"/><line class="cls-7" x1="200.11" y1="101.55" x2="251.42" y2="101.58"/><line class="cls-7" x1="203" y1="107.62" x2="248" y2="107.64"/><line class="cls-7" x1="205.28" y1="113.6" x2="245.28" y2="113.63"/><line class="cls-7" x1="208" y1="118.62" x2="243" y2="118.64"/><line class="cls-7" x1="210.5" y1="123.62" x2="240.5" y2="123.64"/><line class="cls-7" x1="213" y1="128.62" x2="238" y2="128.64"/><line class="cls-7" x1="215.5" y1="133.62" x2="235.5" y2="133.64"/><line class="cls-7" x1="218" y1="138.62" x2="233" y2="138.64"/><line class="cls-7" x1="220.5" y1="143.62" x2="230.5" y2="143.64"/><line class="cls-7" x1="197.02" y1="95.64" x2="253.19" y2="95.62"/><line class="cls-7" x1="200.11" y1="89.47" x2="251.42" y2="89.44"/><line class="cls-7" x1="203" y1="83.41" x2="248" y2="83.38"/><line class="cls-7" x1="205.28" y1="77.42" x2="245.28" y2="77.39"/><line class="cls-7" x1="208" y1="72.41" x2="243" y2="72.38"/><line class="cls-7" x1="210.5" y1="67.41" x2="240.5" y2="67.38"/><line class="cls-7" x1="213" y1="62.41" x2="238" y2="62.38"/><line class="cls-7" x1="215.5" y1="57.41" x2="235.5" y2="57.38"/><line class="cls-7" x1="218" y1="52.41" x2="233" y2="52.38"/><line class="cls-7" x1="220.5" y1="47.41" x2="230.5" y2="47.38"/><path id="diamondOutline-7" data-name="diamondOutline" class="cls-8" d="M224.87,37.18c-.25-.66,28.32,58.23,28.32,58.23l-27.27,59.4c.51,1.13-26.85-56.92-28.1-58.82C197.23,95.11,224.87,37.18,224.87,37.18Z"/></g><g id="diamond-red-filled-3-3" data-name="diamond-red-filled-3"><line class="cls-7" x1="120.02" y1="95.38" x2="176.19" y2="95.41"/><line class="cls-7" x1="123.11" y1="101.55" x2="174.42" y2="101.58"/><line class="cls-7" x1="126" y1="107.62" x2="171" y2="107.64"/><line class="cls-7" x1="128.28" y1="113.6" x2="168.28" y2="113.63"/><line class="cls-7" x1="131" y1="118.62" x2="166" y2="118.64"/><line class="cls-7" x1="133.5" y1="123.62" x2="163.5" y2="123.64"/><line class="cls-7" x1="136" y1="128.62" x2="161" y2="128.64"/><line class="cls-7" x1="138.5" y1="133.62" x2="158.5" y2="133.64"/><line class="cls-7" x1="141" y1="138.62" x2="156" y2="138.64"/><line class="cls-7" x1="143.5" y1="143.62" x2="153.5" y2="143.64"/><line class="cls-7" x1="120.02" y1="95.64" x2="176.19" y2="95.62"/><line class="cls-7" x1="123.11" y1="89.47" x2="174.42" y2="89.44"/><line class="cls-7" x1="126" y1="83.41" x2="171" y2="83.38"/><line class="cls-7" x1="128.28" y1="77.42" x2="168.28" y2="77.39"/><line class="cls-7" x1="131" y1="72.41" x2="166" y2="72.38"/><line class="cls-7" x1="133.5" y1="67.41" x2="163.5" y2="67.38"/><line class="cls-7" x1="136" y1="62.41" x2="161" y2="62.38"/><line class="cls-7" x1="138.5" y1="57.41" x2="158.5" y2="57.38"/><line class="cls-7" x1="141" y1="52.41" x2="156" y2="52.38"/><line class="cls-7" x1="143.5" y1="47.41" x2="153.5" y2="47.38"/><path id="diamondOutline-8" data-name="diamondOutline" class="cls-8" d="M147.87,37.18c-.25-.66,28.32,58.23,28.32,58.23l-27.27,59.4c.51,1.13-26.85-56.92-28.1-58.82C120.23,95.11,147.87,37.18,147.87,37.18Z"/></g><g id="diamond-red-filled-3-4" data-name="diamond-red-filled-3"><line class="cls-7" x1="46.41" y1="95.38" x2="102.59" y2="95.41"/><line class="cls-7" x1="49.5" y1="101.55" x2="100.81" y2="101.58"/><line class="cls-7" x1="52.4" y1="107.62" x2="97.4" y2="107.64"/><line class="cls-7" x1="54.68" y1="113.6" x2="94.68" y2="113.63"/><line class="cls-7" x1="57.4" y1="118.62" x2="92.4" y2="118.64"/><line class="cls-7" x1="59.9" y1="123.62" x2="89.9" y2="123.64"/><line class="cls-7" x1="62.4" y1="128.62" x2="87.4" y2="128.64"/><line class="cls-7" x1="64.9" y1="133.62" x2="84.9" y2="133.64"/><line class="cls-7" x1="67.4" y1="138.62" x2="82.4" y2="138.64"/><line class="cls-7" x1="69.9" y1="143.62" x2="79.9" y2="143.64"/><line class="cls-7" x1="46.41" y1="95.64" x2="102.59" y2="95.62"/><line class="cls-7" x1="49.5" y1="89.47" x2="100.81" y2="89.44"/><line class="cls-7" x1="52.4" y1="83.41" x2="97.4" y2="83.38"/><line class="cls-7" x1="54.68" y1="77.42" x2="94.68" y2="77.39"/><line class="cls-7" x1="57.4" y1="72.41" x2="92.4" y2="72.38"/><line class="cls-7" x1="59.9" y1="67.41" x2="89.9" y2="67.38"/><line class="cls-7" x1="62.4" y1="62.41" x2="87.4" y2="62.38"/><line class="cls-7" x1="64.9" y1="57.41" x2="84.9" y2="57.38"/><line class="cls-7" x1="67.4" y1="52.41" x2="82.4" y2="52.38"/><line class="cls-7" x1="69.9" y1="47.41" x2="79.9" y2="47.38"/><path id="diamondOutline-9" data-name="diamondOutline" class="cls-8" d="M74.26,37.18c-.24-.66,28.33,58.23,28.33,58.23l-27.28,59.4c.52,1.13-26.84-56.92-28.1-58.82C46.63,95.11,74.26,37.18,74.26,37.18Z"/></g></g><g id="diamond-red-filled-2"><g id="diamond-red-filled-2-2" data-name="diamond-red-filled-2"><line class="cls-7" x1="158.02" y1="95.38" x2="214.19" y2="95.41"/><line class="cls-7" x1="161.11" y1="101.55" x2="212.42" y2="101.58"/><line class="cls-7" x1="164" y1="107.62" x2="209" y2="107.64"/><line class="cls-7" x1="166.28" y1="113.6" x2="206.28" y2="113.63"/><line class="cls-7" x1="169" y1="118.62" x2="204" y2="118.64"/><line class="cls-7" x1="171.5" y1="123.62" x2="201.5" y2="123.64"/><line class="cls-7" x1="174" y1="128.62" x2="199" y2="128.64"/><line class="cls-7" x1="176.5" y1="133.62" x2="196.5" y2="133.64"/><line class="cls-7" x1="179" y1="138.62" x2="194" y2="138.64"/><line class="cls-7" x1="181.5" y1="143.62" x2="191.5" y2="143.64"/><line class="cls-7" x1="158.02" y1="95.64" x2="214.19" y2="95.62"/><line class="cls-7" x1="161.11" y1="89.47" x2="212.42" y2="89.44"/><line class="cls-7" x1="164" y1="83.41" x2="209" y2="83.38"/><line class="cls-7" x1="166.28" y1="77.42" x2="206.28" y2="77.39"/><line class="cls-7" x1="169" y1="72.41" x2="204" y2="72.38"/><line class="cls-7" x1="171.5" y1="67.41" x2="201.5" y2="67.38"/><line class="cls-7" x1="174" y1="62.41" x2="199" y2="62.38"/><line class="cls-7" x1="176.5" y1="57.41" x2="196.5" y2="57.38"/><line class="cls-7" x1="179" y1="52.41" x2="194" y2="52.38"/><line class="cls-7" x1="181.5" y1="47.41" x2="191.5" y2="47.38"/><path id="diamondOutline-10" data-name="diamondOutline" class="cls-8" d="M185.87,37.18c-.25-.66,28.32,58.23,28.32,58.23l-27.27,59.4c.51,1.13-26.85-56.92-28.1-58.82C158.23,95.11,185.87,37.18,185.87,37.18Z"/><line class="cls-7" x1="83.02" y1="95.38" x2="139.19" y2="95.41"/><line class="cls-7" x1="86.11" y1="101.55" x2="137.42" y2="101.58"/><line class="cls-7" x1="89" y1="107.62" x2="134" y2="107.64"/><line class="cls-7" x1="91.28" y1="113.6" x2="131.28" y2="113.63"/><line class="cls-7" x1="94" y1="118.62" x2="129" y2="118.64"/><line class="cls-7" x1="96.5" y1="123.62" x2="126.5" y2="123.64"/><line class="cls-7" x1="99" y1="128.62" x2="124" y2="128.64"/><line class="cls-7" x1="101.5" y1="133.62" x2="121.5" y2="133.64"/><line class="cls-7" x1="104" y1="138.62" x2="119" y2="138.64"/><line class="cls-7" x1="106.5" y1="143.62" x2="116.5" y2="143.64"/><line class="cls-7" x1="83.02" y1="95.64" x2="139.19" y2="95.62"/><line class="cls-7" x1="86.11" y1="89.47" x2="137.42" y2="89.44"/><line class="cls-7" x1="89" y1="83.41" x2="134" y2="83.38"/><line class="cls-7" x1="91.28" y1="77.42" x2="131.28" y2="77.39"/><line class="cls-7" x1="94" y1="72.41" x2="129" y2="72.38"/><line class="cls-7" x1="96.5" y1="67.41" x2="126.5" y2="67.38"/><line class="cls-7" x1="99" y1="62.41" x2="124" y2="62.38"/><line class="cls-7" x1="101.5" y1="57.41" x2="121.5" y2="57.38"/><line class="cls-7" x1="104" y1="52.41" x2="119" y2="52.38"/><line class="cls-7" x1="106.5" y1="47.41" x2="116.5" y2="47.38"/><path id="diamondOutline-11" data-name="diamondOutline" class="cls-8" d="M110.87,37.18c-.25-.66,28.32,58.23,28.32,58.23l-27.27,59.4c.51,1.13-26.85-56.92-28.1-58.82C83.23,95.11,110.87,37.18,110.87,37.18Z"/></g></g><g id="diamond-red-filled-1"><g id="diamond-red-filled-1-2" data-name="diamond-red-filled-1"><line class="cls-7" x1="121.41" y1="95.38" x2="177.59" y2="95.41"/><line class="cls-7" x1="123.85" y1="101.56" x2="175.15" y2="101.58"/><line class="cls-7" x1="127" y1="107.62" x2="172" y2="107.65"/><line class="cls-7" x1="129.5" y1="113.61" x2="169.5" y2="113.63"/><line class="cls-7" x1="132" y1="118.62" x2="167" y2="118.65"/><line class="cls-7" x1="134.5" y1="123.62" x2="164.5" y2="123.65"/><line class="cls-7" x1="137" y1="128.62" x2="162" y2="128.65"/><line class="cls-7" x1="139.5" y1="133.62" x2="159.5" y2="133.65"/><line class="cls-7" x1="142" y1="138.62" x2="157" y2="138.65"/><line class="cls-7" x1="144.5" y1="143.62" x2="154.5" y2="143.65"/><line class="cls-7" x1="121.41" y1="95.65" x2="177.59" y2="95.62"/><line class="cls-7" x1="123.85" y1="89.47" x2="175.15" y2="89.45"/><line class="cls-7" x1="127" y1="83.41" x2="172" y2="83.38"/><line class="cls-7" x1="129.5" y1="77.42" x2="169.5" y2="77.4"/><line class="cls-7" x1="132" y1="72.41" x2="167" y2="72.38"/><line class="cls-7" x1="134.5" y1="67.41" x2="164.5" y2="67.38"/><line class="cls-7" x1="137" y1="62.41" x2="162" y2="62.38"/><line class="cls-7" x1="139.5" y1="57.41" x2="159.5" y2="57.38"/><line class="cls-7" x1="142" y1="52.41" x2="157" y2="52.38"/><line class="cls-7" x1="144.5" y1="47.41" x2="154.5" y2="47.38"/><path id="diamondOutline-12" data-name="diamondOutline" class="cls-8" d="M148.87,37.18c-.25-.66,28.32,58.23,28.32,58.23l-27.27,59.4c.51,1.13-26.85-56.92-28.1-58.82C121.23,95.11,148.87,37.18,148.87,37.18Z"/></g></g><g id="diamond-red-outline-3"><path id="diamond-red-outline-3-2" data-name="diamond-red-outline-3" class="cls-8" d="M148.87,37.18c-.25-.66,28.32,58.23,28.32,58.23l-27.27,59.4c.51,1.13-26.85-56.92-28.1-58.82C121.23,95.11,148.87,37.18,148.87,37.18Z"/><path id="diamond-red-outline-3-3" data-name="diamond-red-outline-3" class="cls-8" d="M85.87,37.18c-.25-.66,28.32,58.23,28.32,58.23l-27.27,59.4c.51,1.13-26.85-56.92-28.1-58.82C58.23,95.11,85.87,37.18,85.87,37.18Z"/><path id="diamond-red-outline-3-4" data-name="diamond-red-outline-3" class="cls-8" d="M211.87,37.18c-.25-.66,28.32,58.23,28.32,58.23l-27.27,59.4c.51,1.13-26.85-56.92-28.1-58.82C184.23,95.11,211.87,37.18,211.87,37.18Z"/></g><g id="diamond-red-outline-2"><path id="diamond-red-outline-2-2" data-name="diamond-red-outline-2" class="cls-8" d="M111.88,37.18c-.25-.66,28.32,58.23,28.32,58.23l-27.27,59.4c.51,1.13-26.85-56.92-28.1-58.82C84.24,95.11,111.88,37.18,111.88,37.18Z"/><path id="diamond-red-outline-2-3" data-name="diamond-red-outline-2" class="cls-8" d="M186.78,37.18c-.24-.66,28.32,58.23,28.32,58.23l-27.27,59.4c.52,1.13-26.85-56.92-28.1-58.82C159.15,95.11,186.78,37.18,186.78,37.18Z"/></g><g id="diamond-red-outline-1"><path id="diamond-red-solid-1" class="cls-8" d="M148.87,37.18c-.25-.66,28.32,58.23,28.32,58.23l-27.27,59.4c.51,1.13-26.85-56.92-28.1-58.82C121.23,95.11,148.87,37.18,148.87,37.18Z"/></g><g id="diamond-red-solid-3"><path id="diamond-red-solid-1-2" data-name="diamond-red-solid-1" class="cls-9" d="M149.09,37.18c-.24-.66,28.32,58.23,28.32,58.23l-27.27,59.4c.52,1.13-26.85-56.92-28.1-58.82C121.46,95.11,149.09,37.18,149.09,37.18Z"/><path id="diamond-red-solid-1-3" data-name="diamond-red-solid-1" class="cls-9" d="M75.92,37.18c-.24-.66,28.32,58.23,28.32,58.23L77,154.81c.52,1.13-26.85-56.92-28.1-58.82C48.29,95.11,75.92,37.18,75.92,37.18Z"/><path id="diamond-red-solid-1-4" data-name="diamond-red-solid-1" class="cls-9" d="M225.75,37.18c-.25-.66,28.32,58.23,28.32,58.23l-27.28,59.4C227.31,155.94,200,97.89,198.7,96,198.11,95.11,225.75,37.18,225.75,37.18Z"/></g><g id="diamond-red-solid-2"><path id="diamond-red-solid-1-5" data-name="diamond-red-solid-1" class="cls-9" d="M186.2,37.18c-.25-.66,28.32,58.23,28.32,58.23l-27.27,59.4c.51,1.13-26.85-56.92-28.1-58.82C158.56,95.11,186.2,37.18,186.2,37.18Z"/><path id="diamond-red-solid-1-6" data-name="diamond-red-solid-1" class="cls-9" d="M111.67,37.18C111.43,36.52,140,95.41,140,95.41l-27.28,59.4c.52,1.13-26.84-56.92-28.1-58.82C84,95.11,111.67,37.18,111.67,37.18Z"/></g><g id="diamond-red-solid-1-7" data-name="diamond-red-solid-1"><path id="diamond-red-solid-1-8" data-name="diamond-red-solid-1" class="cls-9" d="M148.87,37.18c-.25-.66,28.32,58.23,28.32,58.23l-27.27,59.4c.51,1.13-26.85-56.92-28.1-58.82C121.23,95.11,148.87,37.18,148.87,37.18Z"/></g><g id="diamond-green-filled-3"><g id="diamond-green-filled-3-2" data-name="diamond-green-filled-3"><line class="cls-10" x1="198.02" y1="95.38" x2="254.19" y2="95.41"/><line class="cls-10" x1="201.11" y1="101.55" x2="252.42" y2="101.58"/><line class="cls-10" x1="204" y1="107.62" x2="249" y2="107.64"/><line class="cls-10" x1="206.28" y1="113.6" x2="246.28" y2="113.63"/><line class="cls-10" x1="209" y1="118.62" x2="244" y2="118.64"/><line class="cls-10" x1="211.5" y1="123.62" x2="241.5" y2="123.64"/><line class="cls-10" x1="214" y1="128.62" x2="239" y2="128.64"/><line class="cls-10" x1="216.5" y1="133.62" x2="236.5" y2="133.64"/><line class="cls-10" x1="219" y1="138.62" x2="234" y2="138.64"/><line class="cls-10" x1="221.5" y1="143.62" x2="231.5" y2="143.64"/><line class="cls-10" x1="198.02" y1="95.64" x2="254.19" y2="95.62"/><line class="cls-10" x1="201.11" y1="89.47" x2="252.42" y2="89.44"/><line class="cls-10" x1="204" y1="83.41" x2="249" y2="83.38"/><line class="cls-10" x1="206.28" y1="77.42" x2="246.28" y2="77.39"/><line class="cls-10" x1="209" y1="72.41" x2="244" y2="72.38"/><line class="cls-10" x1="211.5" y1="67.41" x2="241.5" y2="67.38"/><line class="cls-10" x1="214" y1="62.41" x2="239" y2="62.38"/><line class="cls-10" x1="216.5" y1="57.41" x2="236.5" y2="57.38"/><line class="cls-10" x1="219" y1="52.41" x2="234" y2="52.38"/><line class="cls-10" x1="221.5" y1="47.41" x2="231.5" y2="47.38"/><path id="diamondOutline-13" data-name="diamondOutline" class="cls-11" d="M225.87,37.18c-.25-.66,28.32,58.23,28.32,58.23l-27.27,59.4c.51,1.13-26.85-56.92-28.1-58.82C198.23,95.11,225.87,37.18,225.87,37.18Z"/></g><g id="diamond-green-filled-3-3" data-name="diamond-green-filled-3"><line class="cls-10" x1="121.02" y1="95.38" x2="177.19" y2="95.41"/><line class="cls-10" x1="124.11" y1="101.55" x2="175.42" y2="101.58"/><line class="cls-10" x1="127" y1="107.62" x2="172" y2="107.64"/><line class="cls-10" x1="129.28" y1="113.6" x2="169.28" y2="113.63"/><line class="cls-10" x1="132" y1="118.62" x2="167" y2="118.64"/><line class="cls-10" x1="134.5" y1="123.62" x2="164.5" y2="123.64"/><line class="cls-10" x1="137" y1="128.62" x2="162" y2="128.64"/><line class="cls-10" x1="139.5" y1="133.62" x2="159.5" y2="133.64"/><line class="cls-10" x1="142" y1="138.62" x2="157" y2="138.64"/><line class="cls-10" x1="144.5" y1="143.62" x2="154.5" y2="143.64"/><line class="cls-10" x1="121.02" y1="95.64" x2="177.19" y2="95.62"/><line class="cls-10" x1="124.11" y1="89.47" x2="175.42" y2="89.44"/><line class="cls-10" x1="127" y1="83.41" x2="172" y2="83.38"/><line class="cls-10" x1="129.28" y1="77.42" x2="169.28" y2="77.39"/><line class="cls-10" x1="132" y1="72.41" x2="167" y2="72.38"/><line class="cls-10" x1="134.5" y1="67.41" x2="164.5" y2="67.38"/><line class="cls-10" x1="137" y1="62.41" x2="162" y2="62.38"/><line class="cls-10" x1="139.5" y1="57.41" x2="159.5" y2="57.38"/><line class="cls-10" x1="142" y1="52.41" x2="157" y2="52.38"/><line class="cls-10" x1="144.5" y1="47.41" x2="154.5" y2="47.38"/><path id="diamondOutline-14" data-name="diamondOutline" class="cls-11" d="M148.87,37.18c-.25-.66,28.32,58.23,28.32,58.23l-27.27,59.4c.51,1.13-26.85-56.92-28.1-58.82C121.23,95.11,148.87,37.18,148.87,37.18Z"/></g><g id="diamond-green-filled-3-4" data-name="diamond-green-filled-3"><line class="cls-10" x1="47.41" y1="95.38" x2="103.59" y2="95.41"/><line class="cls-10" x1="50.5" y1="101.55" x2="101.81" y2="101.58"/><line class="cls-10" x1="53.4" y1="107.62" x2="98.4" y2="107.64"/><line class="cls-10" x1="55.68" y1="113.6" x2="95.68" y2="113.63"/><line class="cls-10" x1="58.4" y1="118.62" x2="93.4" y2="118.64"/><line class="cls-10" x1="60.9" y1="123.62" x2="90.9" y2="123.64"/><line class="cls-10" x1="63.4" y1="128.62" x2="88.4" y2="128.64"/><line class="cls-10" x1="65.9" y1="133.62" x2="85.9" y2="133.64"/><line class="cls-10" x1="68.4" y1="138.62" x2="83.4" y2="138.64"/><line class="cls-10" x1="70.9" y1="143.62" x2="80.9" y2="143.64"/><line class="cls-10" x1="47.41" y1="95.64" x2="103.59" y2="95.62"/><line class="cls-10" x1="50.5" y1="89.47" x2="101.81" y2="89.44"/><line class="cls-10" x1="53.4" y1="83.41" x2="98.4" y2="83.38"/><line class="cls-10" x1="55.68" y1="77.42" x2="95.68" y2="77.39"/><line class="cls-10" x1="58.4" y1="72.41" x2="93.4" y2="72.38"/><line class="cls-10" x1="60.9" y1="67.41" x2="90.9" y2="67.38"/><line class="cls-10" x1="63.4" y1="62.41" x2="88.4" y2="62.38"/><line class="cls-10" x1="65.9" y1="57.41" x2="85.9" y2="57.38"/><line class="cls-10" x1="68.4" y1="52.41" x2="83.4" y2="52.38"/><line class="cls-10" x1="70.9" y1="47.41" x2="80.9" y2="47.38"/><path id="diamondOutline-15" data-name="diamondOutline" class="cls-11" d="M75.26,37.18c-.24-.66,28.33,58.23,28.33,58.23l-27.28,59.4c.52,1.13-26.84-56.92-28.1-58.82C47.63,95.11,75.26,37.18,75.26,37.18Z"/></g></g><g id="diamond-green-filled-2"><g id="diamond-green-filled-2-2" data-name="diamond-green-filled-2"><line class="cls-10" x1="158.02" y1="95.38" x2="214.19" y2="95.41"/><line class="cls-10" x1="161.11" y1="101.55" x2="212.42" y2="101.58"/><line class="cls-10" x1="164" y1="107.62" x2="209" y2="107.64"/><line class="cls-10" x1="166.28" y1="113.6" x2="206.28" y2="113.63"/><line class="cls-10" x1="169" y1="118.62" x2="204" y2="118.64"/><line class="cls-10" x1="171.5" y1="123.62" x2="201.5" y2="123.64"/><line class="cls-10" x1="174" y1="128.62" x2="199" y2="128.64"/><line class="cls-10" x1="176.5" y1="133.62" x2="196.5" y2="133.64"/><line class="cls-10" x1="179" y1="138.62" x2="194" y2="138.64"/><line class="cls-10" x1="181.5" y1="143.62" x2="191.5" y2="143.64"/><line class="cls-10" x1="158.02" y1="95.64" x2="214.19" y2="95.62"/><line class="cls-10" x1="161.11" y1="89.47" x2="212.42" y2="89.44"/><line class="cls-10" x1="164" y1="83.41" x2="209" y2="83.38"/><line class="cls-10" x1="166.28" y1="77.42" x2="206.28" y2="77.39"/><line class="cls-10" x1="169" y1="72.41" x2="204" y2="72.38"/><line class="cls-10" x1="171.5" y1="67.41" x2="201.5" y2="67.38"/><line class="cls-10" x1="174" y1="62.41" x2="199" y2="62.38"/><line class="cls-10" x1="176.5" y1="57.41" x2="196.5" y2="57.38"/><line class="cls-10" x1="179" y1="52.41" x2="194" y2="52.38"/><line class="cls-10" x1="181.5" y1="47.41" x2="191.5" y2="47.38"/><path id="diamondOutline-16" data-name="diamondOutline" class="cls-11" d="M185.87,37.18c-.25-.66,28.32,58.23,28.32,58.23l-27.27,59.4c.51,1.13-26.85-56.92-28.1-58.82C158.23,95.11,185.87,37.18,185.87,37.18Z"/><line class="cls-10" x1="83.02" y1="95.38" x2="139.19" y2="95.41"/><line class="cls-10" x1="86.11" y1="101.55" x2="137.42" y2="101.58"/><line class="cls-10" x1="89" y1="107.62" x2="134" y2="107.64"/><line class="cls-10" x1="91.28" y1="113.6" x2="131.28" y2="113.63"/><line class="cls-10" x1="94" y1="118.62" x2="129" y2="118.64"/><line class="cls-10" x1="96.5" y1="123.62" x2="126.5" y2="123.64"/><line class="cls-10" x1="99" y1="128.62" x2="124" y2="128.64"/><line class="cls-10" x1="101.5" y1="133.62" x2="121.5" y2="133.64"/><line class="cls-10" x1="104" y1="138.62" x2="119" y2="138.64"/><line class="cls-10" x1="106.5" y1="143.62" x2="116.5" y2="143.64"/><line class="cls-10" x1="83.02" y1="95.64" x2="139.19" y2="95.62"/><line class="cls-10" x1="86.11" y1="89.47" x2="137.42" y2="89.44"/><line class="cls-10" x1="89" y1="83.41" x2="134" y2="83.38"/><line class="cls-10" x1="91.28" y1="77.42" x2="131.28" y2="77.39"/><line class="cls-10" x1="94" y1="72.41" x2="129" y2="72.38"/><line class="cls-10" x1="96.5" y1="67.41" x2="126.5" y2="67.38"/><line class="cls-10" x1="99" y1="62.41" x2="124" y2="62.38"/><line class="cls-10" x1="101.5" y1="57.41" x2="121.5" y2="57.38"/><line class="cls-10" x1="104" y1="52.41" x2="119" y2="52.38"/><line class="cls-10" x1="106.5" y1="47.41" x2="116.5" y2="47.38"/><path id="diamondOutline-17" data-name="diamondOutline" class="cls-11" d="M110.87,37.18c-.25-.66,28.32,58.23,28.32,58.23l-27.27,59.4c.51,1.13-26.85-56.92-28.1-58.82C83.23,95.11,110.87,37.18,110.87,37.18Z"/></g></g><g id="diamond-green-filled-1"><g id="diamond-green-filled-1-2" data-name="diamond-green-filled-1"><line class="cls-10" x1="121.41" y1="95.38" x2="177.59" y2="95.41"/><line class="cls-10" x1="123.85" y1="101.56" x2="175.15" y2="101.58"/><line class="cls-10" x1="127" y1="107.62" x2="172" y2="107.65"/><line class="cls-10" x1="129.5" y1="113.61" x2="169.5" y2="113.63"/><line class="cls-10" x1="132" y1="118.62" x2="167" y2="118.65"/><line class="cls-10" x1="134.5" y1="123.62" x2="164.5" y2="123.65"/><line class="cls-10" x1="137" y1="128.62" x2="162" y2="128.65"/><line class="cls-10" x1="139.5" y1="133.62" x2="159.5" y2="133.65"/><line class="cls-10" x1="142" y1="138.62" x2="157" y2="138.65"/><line class="cls-10" x1="144.5" y1="143.62" x2="154.5" y2="143.65"/><line class="cls-10" x1="121.41" y1="95.65" x2="177.59" y2="95.62"/><line class="cls-10" x1="123.85" y1="89.47" x2="175.15" y2="89.45"/><line class="cls-10" x1="127" y1="83.41" x2="172" y2="83.38"/><line class="cls-10" x1="129.5" y1="77.42" x2="169.5" y2="77.4"/><line class="cls-10" x1="132" y1="72.41" x2="167" y2="72.38"/><line class="cls-10" x1="134.5" y1="67.41" x2="164.5" y2="67.38"/><line class="cls-10" x1="137" y1="62.41" x2="162" y2="62.38"/><line class="cls-10" x1="139.5" y1="57.41" x2="159.5" y2="57.38"/><line class="cls-10" x1="142" y1="52.41" x2="157" y2="52.38"/><line class="cls-10" x1="144.5" y1="47.41" x2="154.5" y2="47.38"/><path id="diamondOutline-18" data-name="diamondOutline" class="cls-11" d="M148.87,37.18c-.25-.66,28.32,58.23,28.32,58.23l-27.27,59.4c.51,1.13-26.85-56.92-28.1-58.82C121.23,95.11,148.87,37.18,148.87,37.18Z"/></g><g id="diamond-green-filled-1-3" data-name="diamond-green-filled-1"><line class="cls-10" x1="121.41" y1="95.38" x2="177.59" y2="95.41"/><line class="cls-10" x1="123.85" y1="101.56" x2="175.15" y2="101.58"/><line class="cls-10" x1="127" y1="107.62" x2="172" y2="107.65"/><line class="cls-10" x1="129.5" y1="113.61" x2="169.5" y2="113.63"/><line class="cls-10" x1="132" y1="118.62" x2="167" y2="118.65"/><line class="cls-10" x1="134.5" y1="123.62" x2="164.5" y2="123.65"/><line class="cls-10" x1="137" y1="128.62" x2="162" y2="128.65"/><line class="cls-10" x1="139.5" y1="133.62" x2="159.5" y2="133.65"/><line class="cls-10" x1="142" y1="138.62" x2="157" y2="138.65"/><line class="cls-10" x1="144.5" y1="143.62" x2="154.5" y2="143.65"/><line class="cls-10" x1="121.41" y1="95.65" x2="177.59" y2="95.62"/><line class="cls-10" x1="123.85" y1="89.47" x2="175.15" y2="89.45"/><line class="cls-10" x1="127" y1="83.41" x2="172" y2="83.38"/><line class="cls-10" x1="129.5" y1="77.42" x2="169.5" y2="77.4"/><line class="cls-10" x1="132" y1="72.41" x2="167" y2="72.38"/><line class="cls-10" x1="134.5" y1="67.41" x2="164.5" y2="67.38"/><line class="cls-10" x1="137" y1="62.41" x2="162" y2="62.38"/><line class="cls-10" x1="139.5" y1="57.41" x2="159.5" y2="57.38"/><line class="cls-10" x1="142" y1="52.41" x2="157" y2="52.38"/><line class="cls-10" x1="144.5" y1="47.41" x2="154.5" y2="47.38"/><path id="diamondOutline-19" data-name="diamondOutline" class="cls-10" d="M148.87,37.18c-.25-.66,28.32,58.23,28.32,58.23l-27.27,59.4c.51,1.13-26.85-56.92-28.1-58.82C121.23,95.11,148.87,37.18,148.87,37.18Z"/></g></g><g id="diamond-green-outline-3"><path id="diamond-green-outline-3-2" data-name="diamond-green-outline-3" class="cls-11" d="M148.87,37.18c-.25-.66,28.32,58.23,28.32,58.23l-27.27,59.4c.51,1.13-26.85-56.92-28.1-58.82C121.23,95.11,148.87,37.18,148.87,37.18Z"/><path id="diamond-green-outline-3-3" data-name="diamond-green-outline-3" class="cls-11" d="M85.87,37.18c-.25-.66,28.32,58.23,28.32,58.23l-27.27,59.4c.51,1.13-26.85-56.92-28.1-58.82C58.23,95.11,85.87,37.18,85.87,37.18Z"/><path id="diamond-green-outline-3-4" data-name="diamond-green-outline-3" class="cls-11" d="M211.87,37.18c-.25-.66,28.32,58.23,28.32,58.23l-27.27,59.4c.51,1.13-26.85-56.92-28.1-58.82C184.23,95.11,211.87,37.18,211.87,37.18Z"/></g><g id="diamond-green-outline-2"><path id="diamond-green-outline-2-2" data-name="diamond-green-outline-2" class="cls-11" d="M115.88,37.18c-.25-.66,28.32,58.23,28.32,58.23l-27.27,59.4c.51,1.13-26.85-56.92-28.1-58.82C88.24,95.11,115.88,37.18,115.88,37.18Z"/><path id="diamond-green-outline-2-3" data-name="diamond-green-outline-2" class="cls-11" d="M180.78,37.18c-.24-.66,28.32,58.23,28.32,58.23l-27.27,59.4c.52,1.13-26.85-56.92-28.1-58.82C153.15,95.11,180.78,37.18,180.78,37.18Z"/></g><g id="diamond-green-outline-1"><path id="diamond-green-outline-1-2" data-name="diamond-green-outline-1" class="cls-11" d="M148.87,37.18c-.25-.66,28.32,58.23,28.32,58.23l-27.27,59.4c.51,1.13-26.85-56.92-28.1-58.82C121.23,95.11,148.87,37.18,148.87,37.18Z"/></g><g id="diamond-green-solid-3"><path id="diamondSolid" class="cls-12" d="M150.09,37.18c-.24-.66,28.32,58.23,28.32,58.23l-27.27,59.4c.52,1.13-26.85-56.92-28.1-58.82C122.46,95.11,150.09,37.18,150.09,37.18Z"/><path id="diamondSolid-2" data-name="diamondSolid" class="cls-12" d="M74.92,37.18c-.24-.66,28.32,58.23,28.32,58.23L76,154.81c.52,1.13-26.85-56.92-28.1-58.82C47.29,95.11,74.92,37.18,74.92,37.18Z"/><path id="diamondSolid-3" data-name="diamondSolid" class="cls-12" d="M225.75,37.18c-.25-.66,28.32,58.23,28.32,58.23l-27.28,59.4C227.31,155.94,200,97.89,198.7,96,198.11,95.11,225.75,37.18,225.75,37.18Z"/></g><g id="diamond-green-solid-2"><path id="diamondSolid-4" data-name="diamondSolid" class="cls-12" d="M187.2,37.18c-.25-.66,28.32,58.23,28.32,58.23l-27.27,59.4c.51,1.13-26.85-56.92-28.1-58.82C159.56,95.11,187.2,37.18,187.2,37.18Z"/><path id="diamondSolid-5" data-name="diamondSolid" class="cls-12" d="M110.67,37.18C110.43,36.52,139,95.41,139,95.41l-27.28,59.4c.52,1.13-26.84-56.92-28.1-58.82C83,95.11,110.67,37.18,110.67,37.18Z"/></g><g id="diamond-green-solid-1"><path id="diamondSolid-6" data-name="diamondSolid" class="cls-12" d="M148.87,37.18c-.25-.66,28.32,58.23,28.32,58.23l-27.27,59.4c.51,1.13-26.85-56.92-28.1-58.82C121.23,95.11,148.87,37.18,148.87,37.18Z"/></g></g></svg>